HIERARCHY
ROOT Hips
{
	OFFSET 0.000000 0.000000 0.000000
	CHANNELS 6 Xposition Yposition Zposition Zrotation Yrotation Xrotation 
	JOINT LowerBack
	{
		OFFSET 0.000000 0.000000 0.000000
		CHANNELS 3 Zrotation Yrotation Xrotation
		JOINT Spine
		{
			OFFSET 0.028270 2.035590 -0.193380
			CHANNELS 3 Zrotation Yrotation Xrotation
			JOINT Spine1
			{
				OFFSET 0.056720 2.048850 -0.042750
				CHANNELS 3 Zrotation Yrotation Xrotation
				JOINT Neck
				{
					OFFSET 0.000000 0.000000 0.000000
					CHANNELS 3 Zrotation Yrotation Xrotation
					JOINT Neck1
					{
						OFFSET -0.054170 1.746240 0.172020
						CHANNELS 3 Zrotation Yrotation Xrotation
						JOINT Head
						{
							OFFSET 0.104070 1.761360 -0.123970
							CHANNELS 3 Zrotation Yrotation Xrotation
							End Site
							{
								OFFSET 0.000000 0.000000 0.000000
							}
						}
					}
				}
				JOINT LeftShoulder
				{
					OFFSET 0.000000 0.000000 0.000000
					CHANNELS 3 Zrotation Yrotation Xrotation
					JOINT LeftArm
					{
						OFFSET 3.362410 1.200890 -0.311210
						CHANNELS 3 Zrotation Yrotation Xrotation
						JOINT LeftForeArm
						{
							OFFSET 4.983000 -0.000000 -0.000000
							CHANNELS 3 Zrotation Yrotation Xrotation
							JOINT LeftHand
							{
								OFFSET 3.483560 -0.000000 -0.000000
								CHANNELS 3 Zrotation Yrotation Xrotation
								JOINT LeftFingerBase
								{
									OFFSET 0.000000 0.000000 0.000000
									CHANNELS 3 Zrotation Yrotation Xrotation
									JOINT LeftHandIndex1
									{
										OFFSET 0.715260 -0.000000 -0.000000
										CHANNELS 3 Zrotation Yrotation Xrotation
										End Site
										{
											OFFSET 0.000000 0.000000 0.000000
										}
									}
								}
								JOINT LThumb
								{
									OFFSET 0.000000 0.000000 0.000000
									CHANNELS 3 Zrotation Yrotation Xrotation
									End Site
									{
										OFFSET 0.000000 0.000000 0.000000
									}
								}
							}
						}
					}
				}
				JOINT RightShoulder
				{
					OFFSET 0.000000 0.000000 0.000000
					CHANNELS 3 Zrotation Yrotation Xrotation
					JOINT RightArm
					{
						OFFSET -3.136600 1.374050 -0.404650
						CHANNELS 3 Zrotation Yrotation Xrotation
						JOINT RightForeArm
						{
							OFFSET -5.241900 -0.000000 -0.000000
							CHANNELS 3 Zrotation Yrotation Xrotation
							JOINT RightHand
							{
								OFFSET -3.444170 -0.000000 -0.000000
								CHANNELS 3 Zrotation Yrotation Xrotation
								JOINT RightFingerBase
								{
									OFFSET 0.000000 0.000000 0.000000
									CHANNELS 3 Zrotation Yrotation Xrotation
									JOINT RightHandIndex1
									{
										OFFSET -0.622530 -0.000000 -0.000000
										CHANNELS 3 Zrotation Yrotation Xrotation
										End Site
										{
											OFFSET 0.000000 0.000000 0.000000
										}
									}
								}
								JOINT RThumb
								{
									OFFSET 0.000000 0.000000 0.000000
									CHANNELS 3 Zrotation Yrotation Xrotation
									End Site
									{
										OFFSET 0.000000 0.000000 0.000000
									}
								}
							}
						}
					}
				}
			}
		}
	}
}
}
MOTION
Frames: 14
Frame Time: 0.008333
-9.401476 17.080199 -2.285454 70.140744 89.816427 92.864893 -2.438869 -2.006626 -3.158284 -1.129540 -1.938409 -3.420808 -6.075474 -1.966413 0.502438 13.140781 -11.115534 -8.001803 -2.248226 -0.162169 -0.145393 0.000000 0.000000 0.000000 -2.385961 12.056429 1.223783 -58.761045 9.657914 14.355583 -0.451318 -82.833569 -0.015752 4.084916 3.824517 0.138228 -0.147671 0.137070 0.000000 0.000000 0.000000 0.000000 0.000000 0.000000 0.000000 12.051598 -5.755988 0.279249 58.878287 11.590031 21.075301 0.204744 84.931270 0.016394 1.395843 5.814806 0.074347 0.046379 -0.363938 -0.000000 0.000000 0.000000 0.000000 0.000000 0.000000 0.000000 
-9.212038 17.018640 -2.264735 62.594746 89.203514 84.990609 -3.052278 -2.144928 -2.877770 -1.242740 -2.023042 -3.368157 -6.071869 -2.052278 0.458957 13.269117 -11.210499 -8.017272 -2.235064 -0.160263 -0.154861 0.000000 0.000000 0.000000 -2.477451 11.865855 1.249237 -59.185538 9.209289 14.081122 -0.496214 -82.073085 -0.019226 5.050261 3.994864 0.177476 -0.159364 0.137280 0.000000 0.000000 0.000000 0.000000 0.000000 0.000000 0.000000 12.097387 -5.932408 0.241685 59.039305 11.496923 20.506452 0.195152 85.074624 0.014256 0.972628 5.745004 0.050659 0.051739 -0.365854 -0.000000 0.000000 0.000000 0.000000 0.000000 0.000000 0.000000 
-9.022605 16.965548 -2.242820 57.227573 88.597450 79.316833 -3.587348 -2.247286 -2.626324 -1.340813 -2.079629 -3.320825 -6.067067 -2.110230 0.422131 13.344495 -11.288885 -8.015156 -2.223328 -0.158775 -0.158695 0.000000 0.000000 0.000000 -2.597773 11.686208 1.266478 -59.592435 8.634272 13.909418 -0.546428 -81.190050 -0.023072 6.124154 4.154808 0.223026 -0.172131 0.137449 0.000000 0.000000 0.000000 0.000000 0.000000 0.000000 0.000000 12.103252 -6.094438 0.198809 59.241734 11.390884 20.012592 0.190955 85.133255 0.011969 0.548492 5.622371 0.027263 0.056866 -0.366206 -0.000000 0.000000 0.000000 0.000000 0.000000 0.000000 0.000000 
-8.832681 16.922343 -2.220435 52.692607 87.977081 74.504247 -4.051241 -2.323199 -2.412964 -1.423729 -2.116479 -3.280067 -6.057721 -2.148755 0.393664 13.365921 -11.347952 -7.994698 -2.214414 -0.157855 -0.156435 0.000000 0.000000 0.000000 -2.746979 11.519008 1.275065 -59.992770 7.956228 13.837101 -0.599258 -80.225375 -0.027121 7.265821 4.288549 0.272377 -0.185335 0.137780 0.000000 0.000000 0.000000 0.000000 0.000000 0.000000 0.000000 12.075880 -6.242075 0.152075 59.454782 11.280540 19.617468 0.190995 85.119128 0.009636 0.140993 5.442657 0.005560 0.061527 -0.364841 -0.000000 0.000000 0.000000 0.000000 0.000000 0.000000 0.000000 
-8.641975 16.890036 -2.198273 48.513520 87.335168 70.076645 -4.440094 -2.376362 -2.239115 -1.489892 -2.137010 -3.245557 -6.041393 -2.171271 0.376196 13.336095 -11.387315 -7.958044 -2.209156 -0.157544 -0.148593 0.000000 0.000000 0.000000 -2.918392 11.376796 1.274345 -60.402521 7.189065 13.863620 -0.652379 -79.218769 -0.031184 8.425211 4.380820 0.322026 -0.198317 0.138518 0.000000 0.000000 0.000000 0.000000 0.000000 0.000000 0.000000 12.023793 -6.373947 0.103689 59.646053 11.180545 19.342392 0.194107 85.045643 0.007381 -0.230582 5.204625 -0.012950 0.065519 -0.361694 -0.000000 0.000000 0.000000 0.000000 0.000000 0.000000 0.000000 
-8.450208 16.869071 -2.177270 44.434443 86.675251 65.777045 -4.737384 -2.408576 -2.103991 -1.535468 -2.143807 -3.217692 -6.016280 -2.180389 0.368053 13.255770 -11.403844 -7.905452 -2.208252 -0.157903 -0.135134 0.000000 0.000000 0.000000 -3.109768 11.257364 1.264217 -60.835989 6.369122 13.976091 -0.702946 -78.225174 -0.035068 9.545689 4.420605 0.367471 -0.210395 0.139870 0.000000 0.000000 0.000000 0.000000 0.000000 0.000000 0.000000 11.949642 -6.484147 0.057590 59.785363 11.098609 19.202005 0.198952 84.928721 0.005355 -0.542687 4.908785 -0.026669 0.068598 -0.356751 0.000000 0.000000 0.000000 0.000000 0.000000 0.000000 0.000000 
-8.257184 16.859356 -2.158334 40.305457 86.004595 61.454337 -4.921843 -2.420876 -2.006106 -1.555949 -2.139188 -3.197478 -5.981067 -2.178481 0.364599 13.125456 -11.397002 -7.836307 -2.212222 -0.158992 -0.115759 0.000000 0.000000 0.000000 -3.320082 11.142355 1.244443 -61.305326 5.553025 14.149590 -0.747735 -77.310411 -0.038576 10.568996 4.400270 0.404312 -0.220914 0.142026 0.000000 0.000000 0.000000 0.000000 0.000000 0.000000 0.000000 11.853714 -6.569226 0.019535 59.844738 11.043085 19.207334 0.204331 84.783789 0.003702 -0.772605 4.557695 -0.034697 0.070590 -0.350052 -0.000000 0.000000 0.000000 0.000000 0.000000 0.000000 0.000000 
-8.062838 16.860344 -2.141575 36.179953 85.324757 57.157767 -4.989804 -2.416698 -1.938228 -1.550690 -2.126655 -3.183258 -5.934995 -2.168862 0.366161 12.952459 -11.369580 -7.755833 -2.220378 -0.160658 -0.092138 0.000000 0.000000 0.000000 -3.530144 11.038892 1.216005 -61.823966 4.753829 14.382553 -0.785468 -76.510411 -0.041611 11.444932 4.316563 0.428649 -0.229562 0.145262 0.000000 0.000000 0.000000 0.000000 0.000000 0.000000 0.000000 11.740639 -6.629252 -0.007694 59.808586 11.022084 19.360479 0.209333 84.627004 0.002551 -0.897898 4.157617 -0.036733 0.071234 -0.341732 -0.000000 0.000000 0.000000 0.000000 0.000000 0.000000 0.000000 
-7.867092 16.871047 -2.126997 32.103556 84.644255 52.931536 -4.935322 -2.400069 -1.894863 -1.518780 -2.110630 -3.174470 -5.878050 -2.155831 0.369870 12.742769 -11.324481 -7.667426 -2.232073 -0.162788 -0.065367 0.000000 0.000000 0.000000 -3.724174 10.936693 1.180084 -62.398183 4.002496 14.664542 -0.814648 -75.865358 -0.044100 12.131639 4.170888 0.437884 -0.236091 0.149800 0.000000 0.000000 0.000000 0.000000 0.000000 0.000000 0.000000 11.611827 -6.665236 -0.020420 59.668291 11.037391 19.655653 0.213194 84.474454 0.002000 -0.898797 3.716877 -0.032978 0.070303 -0.331967 0.000000 0.000000 0.000000 0.000000 0.000000 0.000000 0.000000 
-7.669874 16.890226 -2.114298 28.139024 83.975582 48.840112 -4.757783 -2.376318 -1.872633 -1.460459 -2.096555 -3.170964 -5.810766 -2.144744 0.372385 12.503517 -11.271880 -7.574686 -2.246683 -0.165270 -0.036565 0.000000 0.000000 0.000000 -3.887008 10.812648 1.137104 -63.027834 3.338485 14.978515 -0.833619 -75.414187 -0.046008 12.599038 3.969684 0.431316 -0.240280 0.155792 0.000000 0.000000 0.000000 0.000000 0.000000 0.000000 0.000000 11.470791 -6.687877 -0.014261 59.420694 11.095228 20.088067 0.215581 84.338609 0.002096 -0.764344 3.246067 -0.024630 0.067746 -0.320966 0.000000 0.000000 0.000000 0.000000 0.000000 0.000000 0.000000 
-7.471303 16.916485 -2.102566 24.418126 83.332081 45.012933 -4.472881 -2.353328 -1.863859 -1.379268 -2.091183 -3.170785 -5.734634 -2.142125 0.373504 12.244536 -11.212744 -7.483274 -2.263076 -0.167904 -0.007668 0.000000 0.000000 0.000000 -3.995284 10.671886 1.090063 -63.706227 2.753146 15.336743 -0.842926 -75.159674 -0.047363 12.835238 3.723890 0.410347 -0.242225 0.163372 0.000000 0.000000 0.000000 0.000000 0.000000 0.000000 0.000000 11.320676 -6.698088 0.010114 59.078996 11.182928 20.630964 0.215977 84.236906 0.002853 -0.483736 2.759082 -0.013391 0.063263 -0.309036 0.000000 0.000000 0.000000 0.000000 0.000000 0.000000 0.000000 
-7.271370 16.948379 -2.090773 21.025567 82.731481 41.536471 -4.098637 -2.338765 -1.866125 -1.279093 -2.100944 -3.173437 -5.651511 -2.154347 0.371426 11.974974 -11.160227 -7.397696 -2.280892 -0.170586 0.019917 0.000000 0.000000 0.000000 -4.034872 10.493708 1.039766 -64.418279 2.267090 15.732161 -0.841961 -75.115789 -0.048166 12.839829 3.448471 0.377876 -0.241842 0.172493 0.000000 0.000000 0.000000 0.000000 0.000000 0.000000 0.000000 11.169152 -6.712104 0.054682 58.654020 11.302109 21.269495 0.214439 84.178026 0.004214 -0.062051 2.271013 -0.001560 0.056962 -0.296491 0.000000 0.000000 0.000000 0.000000 0.000000 0.000000 0.000000 
-7.070233 16.984526 -2.077702 18.053999 82.190166 38.501346 -3.663518 -2.340334 -1.875303 -1.165868 -2.131485 -3.177704 -5.564043 -2.186974 0.366063 11.704018 -11.119395 -7.322464 -2.299801 -0.173209 0.044692 0.000000 0.000000 0.000000 -3.992273 10.276582 0.988525 -65.141491 1.869809 16.175095 -0.831472 -75.272795 -0.048440 12.628719 3.161200 0.338104 -0.239236 0.183005 0.000000 0.000000 0.000000 0.000000 0.000000 0.000000 0.000000 11.023024 -6.737076 0.117661 58.166667 11.440400 21.975456 0.210793 84.172425 0.006095 0.491426 1.798380 0.009066 0.048852 -0.283714 0.000000 0.000000 0.000000 0.000000 0.000000 0.000000 0.000000 
-6.868005 17.023703 -2.062134 15.569607 81.720983 35.971228 -3.198336 -2.364023 -1.888975 -1.045943 -2.186552 -3.182832 -5.475129 -2.243751 0.357439 11.439143 -11.095907 -7.261247 -2.319878 -0.175717 0.065478 0.000000 0.000000 0.000000 -3.861476 10.018846 0.938177 -65.848711 1.549743 16.674768 -0.812236 -75.616392 -0.048200 12.228794 2.881003 0.295628 -0.234534 0.194609 0.000000 0.000000 0.000000 0.000000 0.000000 0.000000 0.000000 10.889595 -6.780764 0.196705 57.638473 11.585538 22.722369 0.204926 84.226523 0.008376 1.158168 1.357286 0.016887 0.039100 -0.271105 0.000000 0.000000 0.000000 0.000000 0.000000 0.000000 0.000000 
